<svg id="_27onua0" xmlns="http://www.w3.org/2000/svg" viewBox="0 0 117.37 118.24" width="117.37" height="118.24">
  <path d="M115.71,37.23l-54.4,32.5c-.75.38-1.54.54-2.32.54-1.07,0-2.11-.32-2.98-.84L1.61,37.23c-2.4-1.3-1.9-4.6.1-5.5L55.91.63c.89-.45,1.8-.63,2.67-.63,1.08,0,2.1.29,2.93.73l54.1,31c2.3,1.2,2.3,4.3.1,5.5Z" fill="#101116" style="fill: rgb(255, 255, 255)" />
  <path d="M115.71,86.73l-54.5,31c-1.7.8-3.7.6-5.1-.2L1.91,86.23c-2.6-1.6-2.2-5.1.1-6.3l26.17-15.35,22.72,13.45c2.47,1.47,5.26,2.24,8.09,2.24,2.39,0,4.67-.53,6.79-1.6l.34-.16.32-.2,22.8-13.62,26.27,15.44c2.6,1.8,2.3,5.4.2,6.6Z" fill="#101116" style="fill: rgb(255, 255, 255)" />
</svg>